<svg width="732" height="537" viewBox="0 0 732 537" fill="none" xmlns="http://www.w3.org/2000/svg">
<g filter="url(#filter0_d_71_63)">
<path d="M583.279 528.729V189.777H728V257.445H668.55V323.882H721.394V386.012H668.55V528.729H583.279Z" fill="#3F2849"/>
<path d="M281.828 395.855L326.265 58.1338H448.767L498.609 395.855H411.536L391.72 130.722H388.717L368.901 395.855H281.828Z" fill="#3F2849"/>
<path d="M531.428 366.012C548.385 375.127 584.721 368.314 618.94 371.769C635.13 373.404 635.208 353.346 618.94 353.346L584.721 353.346L584.721 345.861L648.672 345.861C661.574 345.861 662.135 328.014 648.672 328.014L584.721 328.014L584.721 320.53L658.208 320.53C673.355 320.53 672.233 300.955 658.208 300.955L584.721 300.955L584.721 293.471L643.062 293.471C656.525 293.471 661.574 273.322 643.062 273.322C636.33 273.322 584.721 277.928 561.721 269.291C558.916 258.353 578.438 252.48 584.721 245.111C594.818 233.268 579.111 220.356 570.135 230.142C566.349 234.271 547.697 250.868 531.428 253.746C515.16 256.625 505.624 283.684 497.77 283.684C491.487 283.684 390.024 283.281 377.308 283.281L372.504 344.71L497.77 344.71C504.876 350.275 519.648 359.68 531.428 366.012Z" fill="#876796"/>
<path d="M8 344.182V4H93.8716V344.182H8Z" fill="#3F2849"/>
<path d="M119.693 344.182V4H206.165V344.182H119.693Z" fill="#3F2849"/>
<path d="M266.007 242.981C282.963 252.096 319.3 245.283 353.519 248.738C369.709 250.372 369.787 230.314 353.519 230.314L319.3 230.314L319.3 222.83L383.25 222.83C396.153 222.83 396.714 204.983 383.25 204.983L319.3 204.983L319.3 197.498L392.787 197.498C407.933 197.498 406.811 177.924 392.787 177.924L319.3 177.924L319.3 170.44L377.641 170.44C391.104 170.44 396.153 150.291 377.641 150.291C370.909 150.291 319.3 154.896 296.3 146.26C293.495 135.321 313.017 129.449 319.3 122.08C329.397 110.237 313.69 97.3243 304.714 107.111C300.927 111.24 282.275 127.837 266.007 130.715C249.739 133.594 240.202 160.652 232.349 160.652C226.066 160.652 106.587 160.865 93.8718 160.865L93.8718 221.679L232.349 221.679C239.454 227.244 254.227 236.648 266.007 242.981Z" fill="#876796"/>
</g>
<defs>
<filter id="filter0_d_71_63" x="0" y="0" width="732" height="536.729" filterUnits="userSpaceOnUse" color-interpolation-filters="sRGB">
<feFlood flood-opacity="0" result="BackgroundImageFix"/>
<feColorMatrix in="SourceAlpha" type="matrix" values="0 0 0 0 0 0 0 0 0 0 0 0 0 0 0 0 0 0 127 0" result="hardAlpha"/>
<feOffset dx="-2" dy="2"/>
<feGaussianBlur stdDeviation="3"/>
<feComposite in2="hardAlpha" operator="out"/>
<feColorMatrix type="matrix" values="0 0 0 0 0 0 0 0 0 0 0 0 0 0 0 0 0 0 0.3 0"/>
<feBlend mode="normal" in2="BackgroundImageFix" result="effect1_dropShadow_71_63"/>
<feBlend mode="normal" in="SourceGraphic" in2="effect1_dropShadow_71_63" result="shape"/>
</filter>
</defs>
</svg>
