<svg width="720" height="606" viewBox="0 0 720 606" fill="none" xmlns="http://www.w3.org/2000/svg">
<path d="M0 605.383V0H156.226V605.383H0Z" fill="#3F2849"/>
<path d="M203.203 605.383V0H360.521V605.383H203.203Z" fill="#3F2849"/>
<path d="M469.45 425.127C500.297 441.351 566.401 429.225 628.654 435.374C658.108 438.284 658.25 402.581 628.654 402.581L566.401 402.581L566.401 389.26L682.743 389.26C706.215 389.26 707.236 357.492 682.743 357.492L566.401 357.492L566.401 344.171L700.092 344.171C727.647 344.171 725.606 309.329 700.092 309.329L566.401 309.329L566.401 296.007L672.538 296.007C697.031 296.007 706.215 260.143 672.538 260.143C660.291 260.143 566.401 268.341 524.559 252.968C519.456 233.498 554.971 223.046 566.401 209.929C584.771 188.849 556.195 165.866 539.867 183.286C532.978 190.635 499.045 220.176 469.45 225.3C439.854 230.423 422.505 278.587 408.217 278.587C396.787 278.587 179.427 278.965 156.295 278.965L156.295 387.21L408.217 387.21C421.144 397.116 448.018 413.856 469.45 425.127Z" fill="#876796"/>
</svg>
