<svg width="720" height="525" viewBox="0 0 720 525" fill="none" xmlns="http://www.w3.org/2000/svg">
<path d="M575.28 524.729V185.777H720V253.445H660.551V319.882H713.395V382.012H660.551V524.729H575.28Z" fill="#3F2849"/>
<path d="M273.828 391.855L318.265 54.1338H440.767L490.609 391.855H403.536L383.72 126.722H380.717L360.901 391.855H273.828Z" fill="#3F2849"/>
<path d="M523.428 362.012C540.385 371.127 576.721 364.314 610.94 367.769C627.13 369.404 627.208 349.346 610.94 349.346L576.721 349.346L576.721 341.861L640.672 341.861C653.574 341.861 654.135 324.014 640.672 324.014L576.721 324.014L576.721 316.53L650.208 316.53C665.354 316.53 664.232 296.955 650.208 296.955L576.721 296.955L576.721 289.471L635.062 289.471C648.525 289.471 653.574 269.322 635.062 269.322C628.33 269.322 576.721 273.928 553.721 265.291C550.916 254.353 570.438 248.48 576.721 241.111C586.818 229.268 571.111 216.356 562.135 226.142C558.349 230.271 539.696 246.868 523.428 249.746C507.16 252.625 497.623 279.684 489.77 279.684C483.487 279.684 382.023 279.281 369.308 279.281L364.504 340.71L489.77 340.71C496.875 346.275 511.648 355.68 523.428 362.012Z" fill="#876796"/>
<path d="M0 340.182V0H85.8716V340.182H0Z" fill="#3F2849"/>
<path d="M111.693 340.182V0H198.165V340.182H111.693Z" fill="#3F2849"/>
<path d="M258.007 238.981C274.963 248.096 311.299 241.283 345.519 244.738C361.709 246.372 361.787 226.314 345.519 226.314L311.299 226.314L311.299 218.83L375.25 218.83C388.153 218.83 388.714 200.983 375.25 200.983L311.299 200.983L311.299 193.498L384.787 193.498C399.933 193.498 398.811 173.924 384.787 173.924L311.299 173.924L311.299 166.44L369.64 166.44C383.104 166.44 388.153 146.291 369.64 146.291C362.909 146.291 311.299 150.896 288.299 142.26C285.494 131.321 305.016 125.449 311.299 118.08C321.397 106.237 305.689 93.3243 296.714 103.111C292.927 107.24 274.275 123.837 258.007 126.715C241.739 129.594 232.202 156.652 224.348 156.652C218.066 156.652 98.5869 156.865 85.8715 156.865L85.8715 217.679L224.348 217.679C231.454 223.244 246.226 232.648 258.007 238.981Z" fill="#876796"/>
</svg>
